<svg width="48" height="48" viewBox="0 0 48 48" fill="none" xmlns="http://www.w3.org/2000/svg">
<path d="M24 48C37.2548 48 48 37.2548 48 24C48 10.7452 37.2548 0 24 0C10.7452 0 0 10.7452 0 24C0 37.2548 10.7452 48 24 48Z" fill="#ED714A"/>
<path d="M36.2553 16.3404V13.2765C36.2553 12.4305 35.5695 11.7446 34.7234 11.7446L13.2766 11.7446C12.4305 11.7446 11.7447 12.4305 11.7447 13.2765V16.3404C11.7447 17.1864 12.4305 17.8723 13.2766 17.8723H34.7234C35.5695 17.8723 36.2553 17.1864 36.2553 16.3404ZM35.234 13.2765V16.3404C35.234 16.6224 35.0054 16.851 34.7234 16.851H13.2766C12.9946 16.851 12.766 16.6224 12.766 16.3404V13.2765C12.766 12.9945 12.9946 12.7659 13.2766 12.7659L34.7234 12.7659C35.0054 12.7659 35.234 12.9945 35.234 13.2765Z" fill="white"/>
<path d="M35.7447 25.5319V22.4681C35.7447 21.904 35.2874 21.4468 34.7234 21.4468H13.2766C12.7126 21.4468 12.2553 21.904 12.2553 22.4681V25.5319C12.2553 26.0959 12.7126 26.5532 13.2766 26.5532H34.7234C35.2874 26.5532 35.7447 26.0959 35.7447 25.5319Z" fill="white"/>
<path d="M36.2553 34.7234V31.6596C36.2553 30.8135 35.5695 30.1277 34.7234 30.1277H13.2766C12.4305 30.1277 11.7447 30.8135 11.7447 31.6596V34.7234C11.7447 35.5695 12.4305 36.2553 13.2766 36.2553H34.7234C35.5695 36.2553 36.2553 35.5695 36.2553 34.7234ZM35.234 31.6596V34.7234C35.234 35.0055 35.0054 35.2341 34.7234 35.2341H13.2766C12.9946 35.2341 12.766 35.0055 12.766 34.7234V31.6596C12.766 31.3776 12.9946 31.149 13.2766 31.149H34.7234C35.0054 31.149 35.234 31.3776 35.234 31.6596Z" fill="white"/>
</svg>
