<svg width="24" height="24" viewBox="0 0 24 24" fill="#ED714A" xmlns="http://www.w3.org/2000/svg">
<path d="m 0 0 l 26 0 l 0 26 l -26 0 l 0 -26" fill="#ED714A"/>
<path fill-rule="evenodd" clip-rule="evenodd" d="M8.375 2H11.1273H13.8794H16.6311V3H13.8794V8H17.0067V16H13.8794V21H16.6311V22H13.8794H11.1273H8.375V21H11.1273V16H8V8H11.1273V3H8.375V2Z" fill="#ffffff"/>
<path fill-rule="evenodd" clip-rule="evenodd" d="M8.375 2H11.1273H13.8794H16.6311V3H13.8794V8H17.0067V16H13.8794V21H16.6311V22H13.8794H11.1273H8.375V21H11.1273V16H8V8H11.1273V3H8.375V2Z" fill="#ffffff"/>
</svg>
