<svg width="48" height="48" viewBox="0 0 48 48" fill="none" xmlns="http://www.w3.org/2000/svg">
<path d="M24 48C37.2548 48 48 37.2548 48 24C48 10.7452 37.2548 0 24 0C10.7452 0 0 10.7452 0 24C0 37.2548 10.7452 48 24 48Z" fill="#E84E1A"/>
<path fill-rule="evenodd" clip-rule="evenodd" d="M17.5 32.8702C16.5178 32.8702 15.7206 32.0463 15.7206 31.0312C15.7206 30.0162 16.5178 29.1923 17.5 29.1923C18.4822 29.1923 19.2794 30.0162 19.2794 31.0312C19.2794 32.0463 18.4822 32.8702 17.5 32.8702ZM23.2284 31.8048C23.2605 31.5547 23.283 31.2936 23.283 31.0312C23.283 30.7689 23.2605 30.5078 23.2284 30.2454L24.8583 28.925C25.0019 28.8 25.0458 28.583 24.9461 28.4126L23.404 25.6579C23.3055 25.4875 23.1062 25.4188 22.9307 25.4875L21.0137 26.2843C20.6175 25.9656 20.1881 25.7032 19.7136 25.4985L19.4277 23.3923C19.3944 23.2108 19.2296 23.0625 19.0421 23.0625H15.9579C15.7704 23.0625 15.6056 23.2108 15.5723 23.4045L15.2864 25.5095C14.8238 25.7143 14.3825 25.9766 13.9863 26.2954L12.0693 25.4985C11.8926 25.4298 11.6945 25.4985 11.596 25.6689L10.0539 28.4249C9.95424 28.5953 9.99813 28.811 10.1417 28.9361L11.7716 30.2577C11.7395 30.5078 11.717 30.7689 11.717 31.0312C11.717 31.2936 11.7395 31.5547 11.7716 31.8171L10.1417 33.1375C9.99813 33.2625 9.95424 33.4783 10.0539 33.6499L11.596 36.4046C11.6945 36.575 11.8926 36.6437 12.0693 36.575L13.9863 35.7782C14.3825 36.0969 14.8119 36.3593 15.2864 36.564L15.5723 38.6702C15.6056 38.8517 15.7704 39 15.9579 39H19.0421C19.2296 39 19.3944 38.8517 19.4277 38.658L19.7136 36.5518C20.1762 36.347 20.6175 36.0859 21.0137 35.7671L22.9307 36.564C23.1062 36.6327 23.3055 36.564 23.404 36.3936L24.9461 33.6376C25.0458 33.4672 25.0019 33.2515 24.8583 33.1252L23.2284 31.8048Z" stroke="white" stroke-width="1.5" stroke-linecap="round" stroke-linejoin="round"/>
<path fill-rule="evenodd" clip-rule="evenodd" d="M29.625 18.8077C28.6428 18.8077 27.8456 17.9838 27.8456 16.9688C27.8456 15.9537 28.6428 15.1298 29.625 15.1298C30.6072 15.1298 31.4044 15.9537 31.4044 16.9688C31.4044 17.9838 30.6072 18.8077 29.625 18.8077ZM35.3534 17.7423C35.3855 17.4922 35.408 17.2311 35.408 16.9688C35.408 16.7064 35.3855 16.4453 35.3534 16.1829L36.9833 14.8625C37.1269 14.7375 37.1708 14.5205 37.0711 14.3501L35.529 11.5954C35.4305 11.425 35.2312 11.3563 35.0557 11.425L33.1387 12.2218C32.7425 11.9031 32.3131 11.6407 31.8386 11.436L31.5527 9.32978C31.5194 9.14834 31.3546 9 31.1671 9H28.0829C27.8954 9 27.7306 9.14834 27.6973 9.34204L27.4114 11.447C26.9488 11.6518 26.5075 11.9141 26.1113 12.2329L24.1943 11.436C24.0176 11.3673 23.8195 11.436 23.721 11.6064L22.1789 14.3624C22.0792 14.5328 22.1231 14.7485 22.2667 14.8736L23.8966 16.1952C23.8645 16.4453 23.842 16.7064 23.842 16.9688C23.842 17.2311 23.8645 17.4922 23.8966 17.7546L22.2667 19.075C22.1231 19.2 22.0792 19.4158 22.1789 19.5874L23.721 22.3421C23.8195 22.5125 24.0176 22.5812 24.1943 22.5125L26.1113 21.7157C26.5075 22.0344 26.9369 22.2968 27.4114 22.5015L27.6973 24.6077C27.7306 24.7892 27.8954 24.9375 28.0829 24.9375H31.1671C31.3546 24.9375 31.5194 24.7892 31.5527 24.5955L31.8386 22.4893C32.3012 22.2845 32.7425 22.0234 33.1387 21.7046L35.0557 22.5015C35.2312 22.5702 35.4305 22.5015 35.529 22.3311L37.0711 19.5751C37.1708 19.4047 37.1269 19.189 36.9833 19.0627L35.3534 17.7423Z" stroke="white" stroke-width="1.5" stroke-linecap="round" stroke-linejoin="round"/>
</svg>
