<svg width="48" height="48" viewBox="0 0 48 48" fill="none" xmlns="http://www.w3.org/2000/svg">
<path d="M24 48C37.2548 48 48 37.2548 48 24C48 10.7452 37.2548 0 24 0C10.7452 0 0 10.7452 0 24C0 37.2548 10.7452 48 24 48Z" fill="#E84E1A"/>
<path d="M37.5258 32H10.8082C10.1402 32 9.4723 31.6768 9.13833 31.0303C8.80436 30.3838 9.13833 29.7374 9.4723 29.4141L22.8311 16.4848C23.499 15.8384 24.501 15.8384 25.1689 16.4848L38.5277 29.4141C38.8617 29.7374 39.1956 30.7071 38.8617 31.0303C38.5277 31.3535 38.1937 32 37.5258 32ZM12.5181 29.7172H35.5181L24.0181 18.7172L12.5181 29.7172Z" fill="white"/>
</svg>
