<svg xmlns="http://www.w3.org/2000/svg" width="30" height="30" viewBox="0 0 30 30">
    <path fill="none" fill-rule="evenodd" stroke="#FFF" stroke-width="2" d="M25.507 23.807a.507.507 0 0 1 0-1.014H4.493a.507.507 0 0 1 0 1.014h21.014zm0-2.956a.507.507 0 1 1 0-1.015H4.493a.507.507 0 0 1 0 1.015h21.014zM9.001 6.172h-.002l-2.593 6.974h5.188L9.001 6.172zm-3.434 9.229l-.144.388-.4.283.234-.671h.31zm7.176 0l.234.671-.4-.283-.144-.388h.31zm12.764-2.436a.507.507 0 1 1 0-1.014h-9.014a.507.507 0 0 1 0 1.014h9.014zm-19.661.73l3.207-8.999 3.12 8.999H5.846zm19.661-3.686a.507.507 0 1 1 0-1.015h-9.014a.507.507 0 1 1 0 1.015h9.014zm0-2.957a.507.507 0 1 1 0-1.015h-9.014a.507.507 0 1 1 0 1.015h9.014z"/>
</svg>
