<svg xmlns="http://www.w3.org/2000/svg" width="auto" height="auto" viewBox="0 0 274 100">
    <g fill="none" fill-rule="evenodd">
        <path fill="#FFF" fill-rule="nonzero" d="M174 100c13.807 0 25-11.193 25-25s-11.193-25-25-25-25 11.193-25 25 11.193 25 25 25zm0-2c-12.703 0-23-10.297-23-23s10.297-23 23-23 23 10.297 23 23-10.297 23-23 23zM249 50c13.807 0 25-11.193 25-25S262.807 0 249 0s-25 11.193-25 25 11.193 25 25 25zm0-2c-12.703 0-23-10.297-23-23s10.297-23 23-23 23 10.297 23 23-10.297 23-23 23zM99 50c13.807 0 25-11.193 25-25S112.807 0 99 0 74 11.193 74 25s11.193 25 25 25zm0-2c-12.703 0-23-10.297-23-23S86.297 2 99 2s23 10.297 23 23-10.297 23-23 23zM25 100c13.807 0 25-11.193 25-25S38.807 50 25 50 0 61.193 0 75s11.193 25 25 25zm0-2C12.297 98 2 87.703 2 75s10.297-23 23-23 23 10.297 23 23-10.297 23-23 23z"/>
        <g fill="#FFF" fill-rule="nonzero">
            <path d="M36.167 66.875c0 2.816-5.099 4.875-11.334 4.875-6.235 0-11.333-2.059-11.333-4.875S18.598 62 24.833 62s11.334 2.059 11.334 4.875zm-1 0c0-2.016-4.604-3.875-10.334-3.875-5.73 0-10.333 1.86-10.333 3.875 0 2.016 4.603 3.875 10.333 3.875s10.334-1.86 10.334-3.875z"/>
            <path d="M35.167 72.083c0 2.138-4.6 4.084-10.334 4.084-5.733 0-10.333-1.946-10.333-4.084a.5.5 0 0 0-1 0c0 2.925 5.102 5.084 11.333 5.084 6.232 0 11.334-2.159 11.334-5.084a.5.5 0 0 0-1 0z"/>
            <path d="M35.167 77.5c0 2.137-4.6 4.083-10.334 4.083-5.733 0-10.333-1.946-10.333-4.083a.5.5 0 1 0-1 0c0 2.925 5.102 5.083 11.333 5.083 6.232 0 11.334-2.158 11.334-5.083a.5.5 0 0 0-1 0z"/>
            <path d="M35.167 67.083v16.119c0 1.971-4.605 3.798-10.334 3.798-5.728 0-10.333-1.827-10.333-3.798V67.083a.5.5 0 0 0-1 0v16.119C13.5 85.978 18.596 88 24.833 88s11.334-2.022 11.334-4.798V67.083a.5.5 0 0 0-1 0z"/>
        </g>
        <g fill="#FFF" fill-rule="nonzero">
            <path d="M176.43 82c1.413 0 2.528-.803 2.823-2.128.166-.747.457-1.373.953-2.065.138-.193.286-.394.469-.638.107-.145.493-.66.487-.65 2.04-2.723 2.838-4.267 2.838-6.326 0-5.341-4.384-9.693-9.75-9.693-5.36 0-9.75 4.384-9.75 9.733 0 2.062.816 3.66 2.837 6.379l.487.654c.186.25.332.45.47.64.544.758.798 1.266.953 1.963.295 1.325 1.41 2.131 2.822 2.131h4.362zm0-1h-4.36c-.963 0-1.659-.502-1.847-1.349-.188-.845-.5-1.47-1.118-2.328-.14-.196-.29-.4-.478-.653l-.487-.654c-1.897-2.553-2.64-4.007-2.64-5.783 0-4.796 3.942-8.733 8.75-8.733 4.816 0 8.75 3.906 8.75 8.693 0 1.77-.725 3.172-2.638 5.726l-.489.652c-.186.248-.337.455-.48.653-.572.798-.92 1.547-1.116 2.431-.188.845-.882 1.345-1.846 1.345zM171 84.5h7a.5.5 0 1 0 0-1h-7a.5.5 0 1 0 0 1zM171 86.5h7a.5.5 0 1 0 0-1h-7a.5.5 0 1 0 0 1zM172 88.5h5a.5.5 0 1 0 0-1h-5a.5.5 0 1 0 0 1z"/>
        </g>
        <path fill="#EC4D00" fill-rule="nonzero" d="M245.186 30.554l-7.278-7.216-2.816 2.84 10.113 10.027 17.712-17.794-2.834-2.822z"/>
        <g fill="#FFF" fill-rule="nonzero">
            <path d="M102.25 30.417a2.166 2.166 0 1 0 4.332 0 2.166 2.166 0 0 0-4.332 0zm1 0a1.166 1.166 0 1 1 2.332-.001 1.166 1.166 0 0 1-2.332 0zm-5.692 1.366a.827.827 0 0 0-.19 1.07l1.375 2.313a.854.854 0 0 0 1.028.345l1.452-.568c.242.163.5.31.77.437l.218 1.506c.072.4.427.697.835.697h2.741c.403 0 .759-.29.838-.704l.215-1.487c.27-.126.526-.272.77-.44l1.464.573a.853.853 0 0 0 1.02-.358l1.367-2.297c.221-.358.133-.815-.2-1.09l-1.224-.932a4.767 4.767 0 0 0 0-.854l1.238-.944a.827.827 0 0 0 .19-1.07l-1.375-2.313a.854.854 0 0 0-1.028-.344l-1.452.568a5.81 5.81 0 0 0-.77-.438l-.218-1.506a.852.852 0 0 0-.835-.697h-2.741a.859.859 0 0 0-.838.704l-.215 1.488c-.269.125-.525.272-.77.438l-1.464-.572a.853.853 0 0 0-1.02.358l-1.367 2.298c-.22.358-.133.814.2 1.089l1.224.932a4.767 4.767 0 0 0 0 .854l-1.238.944zm2.07-.321a.5.5 0 0 0 .192-.467 4.2 4.2 0 0 1-.044-.578c0-.178.015-.368.045-.592a.5.5 0 0 0-.193-.464l-1.324-1.008 1.226-2.061 1.581.619a.5.5 0 0 0 .484-.067c.322-.244.666-.44 1.041-.592a.5.5 0 0 0 .307-.392l.233-1.61h2.48l.234 1.62a.5.5 0 0 0 .302.389c.383.16.736.36 1.046.595a.5.5 0 0 0 .484.067l1.582-.62 1.225 2.061-1.324 1.01a.5.5 0 0 0-.192.466c.03.209.044.4.044.579 0 .177-.015.367-.044.591a.5.5 0 0 0 .192.464l1.325 1.008-1.226 2.061-1.582-.618a.5.5 0 0 0-.484.067c-.322.243-.666.44-1.041.592a.5.5 0 0 0-.307.391l-.232 1.61h-2.48l-.235-1.619a.5.5 0 0 0-.302-.39 4.804 4.804 0 0 1-1.046-.594.5.5 0 0 0-.484-.067l-1.582.619-1.225-2.06 1.324-1.01zM91.417 19.583a2.166 2.166 0 1 0 4.332.001 2.166 2.166 0 0 0-4.332 0zm1 0a1.166 1.166 0 1 1 2.332 0 1.166 1.166 0 0 1-2.332 0zm-5.692 1.367a.827.827 0 0 0-.19 1.07l1.375 2.313a.854.854 0 0 0 1.028.344l1.452-.568c.241.164.5.31.77.438l.218 1.506c.072.4.426.697.834.697h2.742c.403 0 .759-.29.838-.704l.215-1.488c.269-.125.525-.272.77-.438l1.464.572a.853.853 0 0 0 1.02-.358l1.367-2.298c.22-.358.133-.814-.2-1.089l-1.224-.932a4.767 4.767 0 0 0 0-.854l1.238-.944a.827.827 0 0 0 .19-1.07l-1.375-2.313a.854.854 0 0 0-1.028-.345l-1.452.568a5.81 5.81 0 0 0-.77-.437l-.218-1.506a.852.852 0 0 0-.835-.697h-2.742a.859.859 0 0 0-.837.704l-.215 1.487c-.27.126-.526.272-.77.44l-1.464-.573a.853.853 0 0 0-1.02.358l-1.367 2.297c-.221.358-.133.815.2 1.09l1.224.932a4.767 4.767 0 0 0 0 .854l-1.238.944zm2.07-.322a.5.5 0 0 0 .192-.466 4.2 4.2 0 0 1-.044-.579c0-.177.015-.367.044-.591a.5.5 0 0 0-.192-.464L87.47 17.52l1.226-2.061 1.582.618a.5.5 0 0 0 .484-.067c.322-.243.666-.44 1.041-.592a.5.5 0 0 0 .307-.391l.232-1.61h2.48l.235 1.619a.5.5 0 0 0 .302.39c.382.16.735.36 1.046.594a.5.5 0 0 0 .484.067l1.582-.619 1.225 2.06-1.324 1.01a.5.5 0 0 0-.192.467c.029.209.044.4.044.578 0 .178-.015.368-.045.592a.5.5 0 0 0 .193.464l1.324 1.008-1.226 2.061-1.581-.619a.5.5 0 0 0-.484.067c-.322.244-.666.44-1.041.592a.5.5 0 0 0-.307.392l-.233 1.61h-2.48l-.234-1.62a.5.5 0 0 0-.302-.389 4.804 4.804 0 0 1-1.046-.595.5.5 0 0 0-.484-.067l-1.582.62-1.225-2.061 1.324-1.01z"/>
        </g>
        <path stroke="#EC4D00" stroke-width="2" d="M70 25.5H46.504c-11.777.727-21.211 10.172-22.004 22"/>
        <path fill="#EC4D00" fill-rule="nonzero" d="M121.535 73.5H145v2h-23.496l-.062-.002C109.167 74.74 99.33 64.9 98.502 52.567l1.996-.134c.759 11.322 9.782 20.357 21.037 21.067z"/>
        <path stroke="#EC4D00" stroke-width="2" d="M203 74.5h23.496c11.777-.727 21.211-10.172 22.004-22"/>
    </g>
</svg>
