<svg xmlns="http://www.w3.org/2000/svg" width="141" height="20" viewBox="0 0 141 20">
    <path fill="#EC4D00" fill-rule="nonzero" d="M14.286 14.227c0 3.618-3.01 5.773-7.2 5.773-3.008 0-5.174-.69-7.086-2.597l2.025-1.961c1.462 1.436 3.065 1.878 5.118 1.878 2.615 0 4.134-1.105 4.134-3.01 0-.857-.253-1.575-.788-2.045-.506-.47-1.012-.663-2.193-.829l-2.362-.331c-1.631-.221-2.925-.774-3.797-1.575C1.153 8.62.675 7.376.675 5.773.675 2.348 3.205 0 7.368 0c2.643 0 4.5.663 6.215 2.238l-1.94 1.878c-1.238-1.16-2.672-1.52-4.36-1.52-2.362 0-3.655 1.327-3.655 3.067 0 .718.225 1.354.759 1.823.506.442 1.322.774 2.25.912l2.278.331c1.856.277 2.896.719 3.74 1.464 1.096.94 1.63 2.348 1.63 4.034zM20 20h-2.857V0H20v20zm22.857 0H39.91V6.63l-4.477 9.746h-2.184L28.662 6.63V20h-2.948V0h2.948l5.678 12.444L39.91 0h2.948v20zM60.952 6.067c0 3.484-2.553 6.068-6.54 6.068h-4.647V20h-3.098V0h7.745c3.987 0 6.54 2.584 6.54 6.067zm-3.81.138c0-2.11-1.377-3.348-3.403-3.348h-4.215v6.667h4.215c2.026 0 3.404-1.21 3.404-3.32zm20 13.795h-12.38V0h2.965v17.275h9.416V20zm14.287 0H79.048V0h12.38v2.725h-9.442v5.842h8.055v2.697h-8.055v6.011h9.443V20zm11.428-8.571h-7.619V8.57h7.62v2.858zM123.81 20h-2.949V6.63l-4.476 9.746H114.2l-4.586-9.747V20h-2.948V0h2.948l5.678 12.444L120.86 0h2.949v20zm17.142 0h-12.38V0h2.964v17.275h9.416V20z"/>
</svg>
