<svg width="24" height="24" viewBox="0 0 24 24" fill="none" xmlns="http://www.w3.org/2000/svg">
<circle cx="12" cy="12" r="12" fill="#D8D8D8"/>
<path d="M8.80348 4.12973L6.14442 6.6697C5.83944 6.95192 6.04912 7.44353 6.478 7.44353H8.18399V12.9149C8.18399 13.4156 8.61287 13.8253 9.13705 13.8253C9.66124 13.8253 10.0901 13.4156 10.0901 12.9149V7.44353H11.7961C12.225 7.44353 12.4347 6.95192 12.1297 6.6697L9.47063 4.12973C9.28954 3.95676 8.98456 3.95676 8.80348 4.12973ZM15.8085 16.5656V11.0942C15.8085 10.5935 15.3796 10.1838 14.8555 10.1838C14.3313 10.1838 13.9024 10.5935 13.9024 11.0942V16.5656H12.1964C11.7675 16.5656 11.5578 17.0572 11.8628 17.3394L14.5219 19.8703C14.7125 20.0432 15.0079 20.0432 15.1986 19.8703L17.8576 17.3394C18.1626 17.0572 17.9434 16.5656 17.524 16.5656H15.8085Z" fill="#494949"/>
</svg>
