<svg width="24" height="24" viewBox="0 0 24 24" fill="none" xmlns="http://www.w3.org/2000/svg">
<path d="M12 24C18.6274 24 24 18.6274 24 12C24 5.37258 18.6274 0 12 0C5.37258 0 0 5.37258 0 12C0 18.6274 5.37258 24 12 24Z" fill="#D8D8D8"/>
<path d="M14.1212 7C16.8153 7 19 9.23894 19 12C19 14.7611 16.8153 17 14.1212 17C13.361 17 12.6414 16.8217 11.9999 16.5038C11.3594 16.8215 10.6394 17 9.87879 17C7.18467 17 5 14.7611 5 12C5 9.23894 7.18467 7 9.87879 7C10.6394 7 11.3594 7.17847 12.0011 7.49676C12.6414 7.17827 13.361 7 14.1212 7ZM14.1212 8.30435C13.8283 8.30435 13.5434 8.34017 13.2707 8.40778C14.1881 9.31671 14.7576 10.5903 14.7576 12C14.7576 13.4097 14.1881 14.6833 13.2721 15.5923C13.5434 15.6598 13.8283 15.6957 14.1212 15.6957C16.1124 15.6957 17.7273 14.0407 17.7273 12C17.7273 9.95932 16.1124 8.30435 14.1212 8.30435ZM9.87879 8.30435C7.88757 8.30435 6.27273 9.95932 6.27273 12C6.27273 14.0407 7.88757 15.6957 9.87879 15.6957C10.1717 15.6957 10.4566 15.6598 10.7293 15.5922C9.81191 14.6833 9.24242 13.4097 9.24242 12C9.24242 10.5903 9.81191 9.31671 10.7279 8.40772C10.4566 8.34017 10.1717 8.30435 9.87879 8.30435ZM12.001 9.01202C11.0965 9.69004 10.5152 10.7756 10.5152 12C10.5152 13.2277 11.0997 14.3159 11.999 14.988C12.8999 14.3167 13.4848 13.2282 13.4848 12C13.4848 10.7723 12.9003 9.68413 12.001 9.01202Z" fill="#494949"/>
</svg>
