<svg width="24" height="24" viewBox="0 0 24 24" fill="none" xmlns="http://www.w3.org/2000/svg">
<path d="M24 12C24 18.6274 18.6274 24 12 24C5.37258 24 0 18.6274 0 12C0 5.37258 5.37258 0 12 0C18.6274 0 24 5.37258 24 12Z" fill="#D8D8D8"/>
<path fill-rule="evenodd" clip-rule="evenodd" d="M6.04997 5.52499C6.04997 5.23504 5.81493 5 5.52499 5C5.23504 5 5 5.23504 5 5.52499V17.7738C5 18.4503 5.54844 18.9988 6.22497 18.9988H18.4738C18.7637 18.9988 18.9988 18.7637 18.9988 18.4738C18.9988 18.1839 18.7637 17.9488 18.4738 17.9488H6.22497C6.12832 17.9488 6.04997 17.8705 6.04997 17.7738V5.52499ZM15.4004 9.73525L7.61294 17.128C7.40266 17.3277 7.07037 17.319 6.87075 17.1087C6.67113 16.8985 6.67977 16.5662 6.89005 16.3665L14.6577 8.99256L14.0693 8.40417C13.874 8.20888 13.9712 7.87494 14.2408 7.81503L16.7234 7.26334C16.9735 7.20777 17.1966 7.43086 17.141 7.68092L16.5893 10.1635C16.5294 10.4331 16.1954 10.5303 16.0002 10.3351L15.4004 9.73525Z" fill="#4F4F4F"/>
</svg>
