<svg width="24" height="24" viewBox="0 0 24 24" fill="none" xmlns="http://www.w3.org/2000/svg">
<path d="M12 24C18.6274 24 24 18.6274 24 12C24 5.37258 18.6274 0 12 0C5.37258 0 0 5.37258 0 12C0 18.6274 5.37258 24 12 24Z" fill="#D8D8D8"/>
<path d="M12 5C15.8655 5 19 8.13455 19 12C19 15.8655 15.8655 19 12 19C8.13455 19 5 15.8655 5 12C5 8.13455 8.13455 5 12 5ZM12 6.27273C8.83745 6.27273 6.27273 8.83745 6.27273 12C6.27273 15.1625 8.83745 17.7273 12 17.7273C15.1625 17.7273 17.7273 15.1625 17.7273 12C17.7273 8.83745 15.1625 6.27273 12 6.27273ZM15.1818 13.9091C15.5333 13.9091 15.8182 14.194 15.8182 14.5455C15.8182 14.8618 15.5874 15.1242 15.285 15.1735L15.1818 15.1818H8.81818C8.46673 15.1818 8.18182 14.8969 8.18182 14.5455C8.18182 14.2291 8.41259 13.9667 8.71496 13.9174L8.81818 13.9091H15.1818ZM11.55 8.79245C11.7985 8.54393 12.2015 8.54393 12.45 8.79245L15.6318 11.9743C16.0327 12.3752 15.7488 13.0606 15.1818 13.0606H8.81818C8.25124 13.0606 7.96732 12.3752 8.3682 11.9743L11.55 8.79245ZM12 10.1429L10.355 11.7868H13.6439L12 10.1429Z" fill="#494949"/>
</svg>
