<svg width="24" height="24" viewBox="0 0 24 24" fill="none" xmlns="http://www.w3.org/2000/svg">
<circle cx="12" cy="12" r="12" fill="#D8D8D8"/>
<path d="M11.5834 6.31249C10.5517 6.3026 9.54133 6.60556 8.68534 7.18142C7.82935 7.75729 7.16796 8.57903 6.78836 9.53832L5.34169 13.1667C5.31593 13.2334 5.30672 13.3054 5.31485 13.3765C5.32297 13.4476 5.3482 13.5157 5.38836 13.575C5.42993 13.6313 5.48458 13.6767 5.54759 13.7071C5.61059 13.7376 5.68007 13.7523 5.75003 13.75H7.20836C7.40175 13.75 7.58721 13.8268 7.72396 13.9635C7.8607 14.1003 7.93753 14.2858 7.93753 14.4792V15.9375C7.93753 16.4016 8.1219 16.8467 8.45008 17.1749C8.77827 17.5031 9.2234 17.6875 9.68753 17.6875H10.3467C10.8108 17.6875 11.2559 17.5031 11.5841 17.1749C11.9123 16.8467 12.0967 16.4016 12.0967 15.9375V12.2625C12.3061 12.1631 12.4755 11.9955 12.577 11.7871C12.6785 11.5788 12.706 11.342 12.6551 11.1159C12.6042 10.8898 12.4778 10.6878 12.2968 10.543C12.1158 10.3982 11.891 10.3193 11.6592 10.3193C11.4274 10.3193 11.2025 10.3982 11.0216 10.543C10.8405 10.6878 10.7142 10.8898 10.6633 11.1159C10.6123 11.342 10.6399 11.5788 10.7414 11.7871C10.8429 11.9955 11.0123 12.1631 11.2217 12.2625V15.9375C11.2217 16.1695 11.1295 16.3921 10.9654 16.5562C10.8013 16.7203 10.5787 16.8125 10.3467 16.8125H9.68753C9.45546 16.8125 9.2329 16.7203 9.0688 16.5562C8.90471 16.3921 8.81253 16.1695 8.81253 15.9375V14.4792C8.81253 14.0537 8.64351 13.6457 8.34267 13.3449C8.04183 13.044 7.63381 12.875 7.20836 12.875H6.39753L7.59919 9.86499C7.9662 8.94538 8.6422 8.18241 9.51091 7.7073C10.3796 7.2322 11.3867 7.07467 12.359 7.26181C13.3313 7.44895 14.208 7.96906 14.8383 8.73268C15.4686 9.4963 15.8131 10.4557 15.8125 11.4458V17.25C15.8125 17.366 15.8586 17.4773 15.9407 17.5593C16.0227 17.6414 16.134 17.6875 16.25 17.6875C16.3661 17.6875 16.4774 17.6414 16.5594 17.5593C16.6414 17.4773 16.6875 17.366 16.6875 17.25V11.4458C16.686 10.0899 16.1487 8.78949 15.1926 7.82796C14.2366 6.86644 12.9393 6.32172 11.5834 6.31249ZM11.6884 11.2008C11.727 11.2008 11.7641 11.2162 11.7915 11.2435C11.8188 11.2709 11.8342 11.308 11.8342 11.3467C11.8342 11.5042 11.5425 11.5042 11.5425 11.3467C11.5418 11.3125 11.5531 11.2793 11.5744 11.2526C11.5958 11.226 11.6258 11.2076 11.6592 11.2008H11.6884Z" fill="#4F4F4F"/>
<path d="M9.83334 15.3542C9.9489 15.3527 10.0593 15.3061 10.1411 15.2244C10.2228 15.1427 10.2693 15.0323 10.2708 14.9167V13.0675C10.2713 12.8561 10.2297 12.6467 10.1486 12.4514C10.0674 12.2562 9.94843 12.079 9.79834 11.93L9.62334 11.755C9.6658 11.6473 9.68757 11.5325 9.68751 11.4167C9.68751 11.2148 9.62764 11.0174 9.51547 10.8496C9.4033 10.6817 9.24387 10.5508 9.05733 10.4736C8.8708 10.3963 8.66555 10.3761 8.46752 10.4155C8.2695 10.4549 8.08761 10.5521 7.94484 10.6949C7.80207 10.8376 7.70485 11.0195 7.66546 11.2176C7.62607 11.4156 7.64629 11.6208 7.72355 11.8074C7.80081 11.9939 7.93166 12.1533 8.09953 12.2655C8.26741 12.3777 8.46477 12.4375 8.66668 12.4375C8.78249 12.4376 8.89727 12.4158 9.00501 12.3734L9.18001 12.5484C9.31792 12.686 9.39555 12.8727 9.39584 13.0675V14.9167C9.39735 15.0323 9.44393 15.1427 9.52566 15.2244C9.60738 15.3061 9.71778 15.3527 9.83334 15.3542ZM8.52084 11.4167C8.52084 11.378 8.53621 11.3409 8.56355 11.3136C8.59091 11.2862 8.628 11.2709 8.66668 11.2709C8.70536 11.2709 8.74245 11.2862 8.7698 11.3136C8.79714 11.3409 8.81251 11.378 8.81251 11.4167C8.81251 11.58 8.52084 11.58 8.52084 11.4167Z" fill="#4F4F4F"/>
<path d="M12.8958 13.0675V14.9167C12.8958 15.0327 12.9419 15.144 13.024 15.226C13.106 15.3081 13.2173 15.3542 13.3333 15.3542C13.4494 15.3542 13.5607 15.3081 13.6427 15.226C13.7248 15.144 13.7708 15.0327 13.7708 14.9167V13.0675C13.7703 12.971 13.7892 12.8753 13.8263 12.7861C13.8633 12.6969 13.9178 12.6161 13.9867 12.5484L14.1617 12.3734C14.2696 12.4153 14.3843 12.4371 14.5 12.4375C14.7019 12.4375 14.8993 12.3777 15.0672 12.2655C15.235 12.1533 15.3659 11.9939 15.4431 11.8074C15.5204 11.6208 15.5406 11.4156 15.5012 11.2176C15.4619 11.0195 15.3646 10.8376 15.2218 10.6949C15.0791 10.5521 14.8972 10.4549 14.6992 10.4155C14.5011 10.3761 14.2959 10.3963 14.1094 10.4736C13.9228 10.5508 13.7634 10.6817 13.6512 10.8496C13.539 11.0174 13.4792 11.2148 13.4792 11.4167C13.4791 11.5325 13.5009 11.6473 13.5433 11.755L13.3683 11.93C13.2183 12.079 13.0993 12.2562 13.0181 12.4514C12.937 12.6467 12.8954 12.8561 12.8958 13.0675ZM14.5 11.2709C14.5387 11.2709 14.5758 11.2862 14.6031 11.3136C14.6305 11.3409 14.6458 11.378 14.6458 11.4167C14.6458 11.58 14.3542 11.58 14.3542 11.4167C14.3542 11.378 14.3695 11.3409 14.3969 11.3136C14.4242 11.2862 14.4613 11.2709 14.5 11.2709Z" fill="#4F4F4F"/>
<circle cx="8.66668" cy="11.4167" r="0.583333" fill="#4F4F4F"/>
<circle cx="11.5833" cy="11.4167" r="0.583333" fill="#4F4F4F"/>
<circle cx="14.5" cy="11.4167" r="0.583333" fill="#4F4F4F"/>
</svg>
