<svg width="24" height="24" viewBox="0 0 24 24" fill="none" xmlns="http://www.w3.org/2000/svg">
<path d="M12 24C18.6274 24 24 18.6274 24 12C24 5.37258 18.6274 0 12 0C5.37258 0 0 5.37258 0 12C0 18.6274 5.37258 24 12 24Z" fill="#D8D8D8"/>
<path d="M18.353 7C18.7103 7 19 7.27471 19 7.61359V11.7042C19 12.2509 18.3031 12.5246 17.8955 12.1381L16.1913 10.522L12.4401 14.0099C12.2164 14.2177 11.8734 14.2408 11.6233 14.0792L11.5342 14.0099L10.4447 12.9968L6.08741 16.8359C5.85471 17.041 5.50538 17.0525 5.25981 16.8781L5.17301 16.804C4.95681 16.5834 4.94468 16.2521 5.12852 16.0192L5.20663 15.9369L10.0162 11.6993C10.2412 11.501 10.577 11.4829 10.8222 11.6425L10.9095 11.7107L11.9867 12.7115L15.2757 9.65379L13.582 8.04747C13.1999 7.68509 13.4297 7.08154 13.9349 7.00752L14.0395 7H18.353ZM17.7053 8.22719H15.6003L16.6482 9.21979C16.6516 9.22294 16.655 9.22614 16.6583 9.22938L16.6647 9.23655L17.7053 10.2224V8.22719Z" fill="#494949"/>
</svg>
