<svg width="24" height="24" viewBox="0 0 24 24" fill="none" xmlns="http://www.w3.org/2000/svg">
<path d="M24 12C24 18.6274 18.6274 24 12 24C5.37258 24 0 18.6274 0 12C0 5.37258 5.37258 0 12 0C18.6274 0 24 5.37258 24 12Z" fill="#D8D8D8"/>
<path fill-rule="evenodd" clip-rule="evenodd" d="M5.52499 5C5.81493 5 6.04997 5.23504 6.04997 5.52499V17.7738C6.04997 17.8705 6.12832 17.9488 6.22497 17.9488H18.4738C18.7637 17.9488 18.9988 18.1839 18.9988 18.4738C18.9988 18.7637 18.7637 18.9988 18.4738 18.9988H6.22497C5.54844 18.9988 5 18.4503 5 17.7738V5.52499C5 5.23504 5.23504 5 5.52499 5ZM16.6273 7.49065C16.9086 7.56097 17.0796 7.846 17.0093 8.12729C16.8974 8.57513 16.8106 9.13632 16.7137 9.76347C16.7086 9.79597 16.7036 9.82865 16.6985 9.8615C16.5974 10.5149 16.4848 11.2255 16.3218 11.8773C16.1607 12.5218 15.9384 13.1609 15.5918 13.6481C15.2312 14.1549 14.7116 14.5249 14 14.5249C13.404 14.5249 12.9335 14.3736 12.5452 14.1346C12.1684 13.9027 11.8904 13.6005 11.6674 13.3457C11.65 13.3258 11.633 13.3063 11.6163 13.2872C11.1669 12.7729 10.9502 12.5249 10.5 12.5249C10.0049 12.5249 9.66375 12.7403 9.4224 12.9943C9.17224 13.2576 9.04264 13.5516 9.00581 13.6456C8.99194 13.681 8.9738 13.7259 8.94957 13.7752C8.87855 13.9197 8.63355 14.4256 8.37918 15.0333C8.12107 15.65 7.86887 16.3353 7.76636 16.8499C7.70971 17.1342 7.43327 17.3188 7.14892 17.2622C6.86456 17.2055 6.67997 16.9291 6.73663 16.6447C6.86097 16.0206 7.14875 15.2536 7.41063 14.628C7.67625 13.9933 7.93127 13.4667 8.00719 13.3122C8.01218 13.302 8.01788 13.2889 8.02818 13.2626C8.08993 13.105 8.28032 12.6719 8.66125 12.2711C9.05099 11.8609 9.65204 11.475 10.5 11.475C11.4474 11.475 11.9752 12.0916 12.3573 12.5379C12.3919 12.5783 12.4252 12.6173 12.4576 12.6543C12.6721 12.8994 12.8628 13.0972 13.0955 13.2404C13.3165 13.3764 13.596 13.475 14 13.475C14.2884 13.475 14.5188 13.345 14.7363 13.0393C14.9678 12.714 15.1518 12.2281 15.3032 11.6226C15.4527 11.0244 15.5589 10.36 15.6609 9.70092C15.667 9.66138 15.6731 9.62181 15.6792 9.58223C15.7729 8.97556 15.8665 8.3692 15.9907 7.87263C16.061 7.59135 16.346 7.42033 16.6273 7.49065Z" fill="#4F4F4F"/>
</svg>
