<svg width="24" height="24" viewBox="0 0 24 24" fill="none" xmlns="http://www.w3.org/2000/svg">
<path d="M12 24C18.6274 24 24 18.6274 24 12C24 5.37258 18.6274 0 12 0C5.37258 0 0 5.37258 0 12C0 18.6274 5.37258 24 12 24Z" fill="#D8D8D8"/>
<path d="M13.4219 13.226L13.5261 13.3158L16.4766 16.3563L16.476 14.5409C16.476 14.1614 16.7523 13.8466 17.1144 13.7875L17.238 13.7775C17.6168 13.7775 17.931 14.0543 17.99 14.417L18 14.5409V18.2366C18 18.6161 17.7237 18.9308 17.3616 18.99L17.238 19H14.1003C13.6795 19 13.3383 18.6582 13.3383 18.2366C13.3383 17.8572 13.6147 17.5424 13.9767 17.4833L14.1003 17.4733L15.4339 17.4721L12.4333 14.38C12.14 14.0776 12.1468 13.5944 12.4486 13.3005C12.7169 13.0393 13.1278 13.0157 13.4219 13.226ZM17.238 5C17.6168 5 17.931 5.27683 17.99 5.63954L18 5.76336V9.45915C18 9.88074 17.6588 10.2225 17.238 10.2225C16.8592 10.2225 16.545 9.94568 16.486 9.58297L16.476 9.45915L16.4766 7.6934L11.8337 12.7479C11.7183 12.8736 11.565 12.9559 11.3993 12.9838L11.273 12.9944H4.76201C4.34116 12.9944 4 12.6526 4 12.231C4 11.8516 4.27634 11.5368 4.6384 11.4776L4.76201 11.4676L10.9395 11.467L15.4771 6.52546L14.1003 6.52673C13.7216 6.52673 13.4073 6.24989 13.3483 5.88719L13.3383 5.76336C13.3383 5.38393 13.6147 5.06915 13.9767 5.00999L14.1003 5H17.238Z" fill="#494949"/>
</svg>
