<svg xmlns="http://www.w3.org/2000/svg" width="32" height="33" viewBox="0 0 32 33">
    <g fill="none" fill-rule="evenodd" transform="translate(4 4)">
        <circle cx="3" cy="3" r="2" stroke="#FFF" stroke-width="2"/>
        <circle cx="3" cy="12" r="2" stroke="#FFF" stroke-width="2"/>
        <circle cx="3" cy="21" r="2" stroke="#FFF" stroke-width="2"/>
        <circle cx="18.5" cy="12" r="2" stroke="#FFF" stroke-width="2"/>
        <rect width="7.6" height="1.067" x="7" y="11.5" fill="#FFF" rx=".5"/>
        <path fill="#FFF" d="M14.449 8.929L7.75 5.062a.5.5 0 0 1-.183-.683l.034-.058a.5.5 0 0 1 .683-.183l6.697 3.867a.5.5 0 0 1 .183.683l-.033.058a.5.5 0 0 1-.683.183zM14.449 15.138L7.75 19.005a.5.5 0 0 0-.183.683l.034.058a.5.5 0 0 0 .683.183l6.697-3.867a.5.5 0 0 0 .183-.683l-.033-.058a.5.5 0 0 0-.683-.183z"/>
        <rect width="3.2" height="1.067" x="22.733" y="11.5" fill="#FFF" rx=".5"/>
    </g>
</svg>
