<svg xmlns="http://www.w3.org/2000/svg" width="26" height="26" viewBox="0 0 26 26">
    <g fill="none" fill-rule="evenodd" stroke="#CCC" stroke-linecap="round" stroke-linejoin="round" stroke-width="1.6">
        <path d="M20.342 17.458l-2.572-.889c-1.325 1.436-3.043 2.28-4.899 2.28-1.855 0-3.574-.844-4.898-2.28l-2.573.889c-2.412.833-4 3.622-4 6.159v.729l23.2.065v-.73c0-2.536-1.846-5.39-4.258-6.223zM18.8 7.455c-.014 0-.029.007-.043.009.017-.168.043-.333.043-.505 0-3.017-2.762-5.562-5.8-5.562S7.2 3.942 7.2 6.96c0 .172.026.337.043.505-.014-.002-.029-.009-.043-.009-.552 0-1 .89-1 1.986 0 1.098.448 1.987 1 1.987.103 0 .2-.04.294-.097.735 2.942 2.985 5.161 5.406 5.161 2.42 0 4.871-2.22 5.606-5.161.094.057.19.097.294.097.552 0 1-.89 1-1.987s-.448-1.986-1-1.986z"/>
    </g>
</svg>
