<svg width="49" height="48" viewBox="0 0 49 48" fill="none" xmlns="http://www.w3.org/2000/svg">
<path d="M24.5 48C37.7548 48 48.5 37.2548 48.5 24C48.5 10.7452 37.7548 0 24.5 0C11.2452 0 0.5 10.7452 0.5 24C0.5 37.2548 11.2452 48 24.5 48Z" fill="#ED714A"/>
<path d="M33.5 29.5C33.5 29.248 33.6868 29.039 33.9291 29.0049L34.012 29.0001C34.2586 29.0059 34.4615 29.1906 34.4951 29.4292L34.5 29.5144V37.5C34.5 37.7519 34.3132 37.961 34.0709 37.9951L33.9856 38H27C26.7239 38 26.5 37.7761 26.5 37.5C26.5 37.2481 26.6868 37.039 26.9291 37.0049L27.0144 37H31.585H32.792L31.9386 36.1465L24.1465 28.3536L24.1464 28.3536C23.9512 28.1583 23.9512 27.8417 24.1464 27.6464C24.3233 27.4696 24.6004 27.4528 24.7957 27.5966L24.8646 27.6574L32.6465 35.4386L33.5 36.292V35.085V29.5ZM27 11C26.7481 11 26.539 10.8132 26.5049 10.5709L26.5001 10.488C26.5059 10.2415 26.6906 10.0385 26.9292 10.0049L27.0144 10H34C34.252 10 34.461 10.1868 34.4951 10.4292L34.5 10.5144V18.5C34.5 18.7761 34.2761 19 34 19C33.748 19 33.539 18.8132 33.5049 18.5708L33.5 18.4856V12.954V11.6986L32.6369 12.6103L21.0554 24.8438C20.9773 24.9263 20.8739 24.9792 20.7628 24.995L20.6777 25H1C0.723855 25 0.5 24.7761 0.5 24.5C0.5 24.248 0.686777 24.039 0.929159 24.0049L1.01441 24H20.262H20.4772L20.6251 23.8437L31.9851 11.8437L32.7838 11H31.622H27Z" fill="white" stroke="white"/>
</svg>
