<svg width="48" height="48" viewBox="0 0 48 48" fill="none" xmlns="http://www.w3.org/2000/svg">
<path d="M24 48C37.2548 48 48 37.2548 48 24C48 10.7452 37.2548 0 24 0C10.7452 0 0 10.7452 0 24C0 37.2548 10.7452 48 24 48Z" fill="#E84E1A"/>
<path fill-rule="evenodd" clip-rule="evenodd" d="M14.6722 13.2059C14.3044 13.2059 13.9117 13.5598 13.9117 14.1177V18.3441L13.9118 18.3529V29.647L13.9117 29.6559V33.8824C13.9117 34.4403 14.3044 34.7942 14.6722 34.7942H15.9328C16.3006 34.7942 16.6933 34.4403 16.6933 33.8824V14.1177C16.6933 13.5598 16.3006 13.2059 15.9328 13.2059H14.6722ZM12.9117 14.1177V16.6257C12.6853 16.5081 12.4288 16.4412 12.1513 16.4412H10.8908C9.86704 16.4412 9.13025 17.3523 9.13025 18.3529V29.647C9.13025 30.6477 9.86704 31.5588 10.8908 31.5588H12.1513C12.4288 31.5588 12.6853 31.4918 12.9117 31.3742V33.8824C12.9117 34.8831 13.6485 35.7942 14.6722 35.7942H15.9328C16.9565 35.7942 17.6933 34.8831 17.6933 33.8824V25.9118H30.5588V33.8824C30.5588 34.8831 31.2956 35.7942 32.3193 35.7942H33.5798C34.6036 35.7942 35.3404 34.8831 35.3404 33.8824V31.3742C35.5668 31.4918 35.8233 31.5588 36.1008 31.5588H37.3613C38.3851 31.5588 39.1218 30.6477 39.1218 29.647V18.3529C39.1218 17.3523 38.3851 16.4412 37.3613 16.4412H36.1008C35.8233 16.4412 35.5668 16.5081 35.3404 16.6257V14.1177C35.3404 13.117 34.6036 12.2059 33.5798 12.2059H32.3193C31.2956 12.2059 30.5588 13.117 30.5588 14.1177V22.0883H17.6933V14.1177C17.6933 13.117 16.9565 12.2059 15.9328 12.2059H14.6722C13.6485 12.2059 12.9117 13.117 12.9117 14.1177ZM31.5588 25.4142C31.5588 25.4134 31.5588 25.4126 31.5588 25.4118V22.5883C31.5588 22.5875 31.5588 22.5866 31.5588 22.5858V14.1177C31.5588 13.5598 31.9515 13.2059 32.3193 13.2059H33.5798C33.9477 13.2059 34.3404 13.5598 34.3404 14.1177V18.3441L34.3403 18.3529V29.647L34.3404 29.6559V33.8824C34.3404 34.4403 33.9477 34.7942 33.5798 34.7942H32.3193C31.9515 34.7942 31.5588 34.4403 31.5588 33.8824V25.4142ZM30.5588 23.0883H17.6933V24.9118H30.5588V23.0883ZM12.1513 17.4412C12.5177 17.4412 12.9086 17.7921 12.9117 18.3462V29.6538C12.9086 30.2078 12.5177 30.5588 12.1513 30.5588H10.8908C10.5229 30.5588 10.1302 30.205 10.1302 29.647V18.3529C10.1302 17.795 10.5229 17.4412 10.8908 17.4412H12.1513ZM36.1008 17.4412C35.7344 17.4412 35.3435 17.7921 35.3404 18.3462V29.6538C35.3435 30.2078 35.7344 30.5588 36.1008 30.5588H37.3613C37.7292 30.5588 38.1218 30.205 38.1218 29.647V18.3529C38.1218 17.795 37.7292 17.4412 37.3613 17.4412H36.1008Z" fill="white"/>
</svg>
