<svg width="40" height="32" viewBox="0 0 40 32" fill="none" xmlns="http://www.w3.org/2000/svg">
<path fill-rule="evenodd" clip-rule="evenodd" d="M34 1.79669C36.2091 1.79669 38 3.58755 38 5.79669V10.5967L37.9978 10.5957L37.9954 10.4455C37.8941 8.02738 36.1405 6.09521 34 6.09521H14.4027C13.276 6.09521 12.2773 5.29216 11.896 4.08683L11.8253 3.28988C11.82 3.23502 11.8093 3.17864 11.7947 3.1253C11.6519 2.63589 11.4421 2.18855 11.1792 1.7948L34 1.79669Z" fill="#9D65A4"/>
<path fill-rule="evenodd" clip-rule="evenodd" d="M10 1C10.632 1 11.2249 1.23005 11.7112 1.62295C12.208 2.02441 12.5936 2.59344 12.8107 3.26909L12.912 4.212C13.1591 5.05109 13.6409 5.7445 14.2529 6.22555C14.8675 6.70874 15.6137 6.98033 16.4027 6.98033H36C36.8152 6.98033 37.5476 7.36343 38.0807 7.96121C38.6529 8.60288 39 9.49068 39 10.4656V26.9115C39 27.8864 38.6529 28.7742 38.0807 29.4158C37.5476 30.0136 36.8152 30.3967 36 30.3967H4C3.18475 30.3967 2.45243 30.0136 1.91932 29.4158C1.34708 28.7742 1 27.8864 1 26.9115V4.48525C1 3.51035 1.34708 2.62255 1.91932 1.98088C2.45243 1.3831 3.18475 1 4 1H10Z" fill="#461F4C" stroke="white" stroke-width="2"/>
</svg>
