<svg xmlns="http://www.w3.org/2000/svg" width="48" height="36" viewBox="0 0 48 36">
    <g fill="none" fill-rule="evenodd">
        <path fill="#9D65A4" d="M19.683 7.407c-1.352 0-2.55-.887-3.008-2.217l-.085-.88a1.014 1.014 0 0 0-.036-.182C15.899 2.065 14.07.678 12 .678H4.8C2.154.679 0 2.944 0 5.726v25.23C0 33.735 2.154 36 4.8 36h38.4c2.646 0 4.8-2.264 4.8-5.046V12.452c0-2.782-2.154-5.045-4.8-5.045H19.683z"/>
        <path fill="#FFF" fill-rule="nonzero" d="M44 1.8a4 4 0 0 1 4 4v5.9h-.002l-.002-.144c-.11-2.733-2.22-4.92-4.796-4.92H19.683c-1.352 0-2.55-.904-3.008-2.26l-.085-.896a1.051 1.051 0 0 0-.036-.185 5.28 5.28 0 0 0-.738-1.496L44 1.8z"/>
    </g>
</svg>
