<svg xmlns="http://www.w3.org/2000/svg" xmlns:xlink="http://www.w3.org/1999/xlink" width="48" height="48" viewBox="0 0 48 48">
    <defs>
        <circle id="a" cx="24" cy="24" r="24"/>
    </defs>
    <g fill="none" fill-rule="evenodd">
        <use fill="#FFF" xlink:href="#a"/>
        <g stroke="#9D65A4" stroke-linecap="round" stroke-linejoin="round" stroke-width="1.875">
            <path d="M17.5 32.87c-.982 0-1.78-.824-1.78-1.839 0-1.015.798-1.839 1.78-1.839s1.78.824 1.78 1.84c0 1.014-.798 1.838-1.78 1.838zm5.728-1.065c.032-.25.055-.511.055-.774a6.48 6.48 0 0 0-.055-.786l1.63-1.32a.41.41 0 0 0 .088-.512l-1.542-2.755c-.098-.17-.298-.24-.473-.17l-1.917.796a5.597 5.597 0 0 0-1.3-.786l-.286-2.106a.405.405 0 0 0-.386-.33h-3.084a.404.404 0 0 0-.386.343l-.286 2.105a5.855 5.855 0 0 0-1.3.785l-1.917-.797a.383.383 0 0 0-.473.17l-1.542 2.757c-.1.17-.056.386.088.511l1.63 1.322c-.032.25-.055.51-.055.773s.023.524.055.786l-1.63 1.32a.41.41 0 0 0-.088.513l1.542 2.755c.098.17.297.239.473.17l1.917-.797c.397.319.826.581 1.3.786l.286 2.106c.034.182.198.33.386.33h3.084a.404.404 0 0 0 .386-.342l.286-2.106a5.85 5.85 0 0 0 1.3-.785l1.917.797c.175.069.375 0 .473-.17l1.542-2.756a.41.41 0 0 0-.088-.513l-1.63-1.32zM29.625 18.808c-.982 0-1.78-.824-1.78-1.84 0-1.014.798-1.838 1.78-1.838s1.78.824 1.78 1.839c0 1.015-.798 1.839-1.78 1.839zm5.728-1.066c.032-.25.055-.51.055-.773a6.48 6.48 0 0 0-.055-.786l1.63-1.32a.41.41 0 0 0 .088-.513l-1.542-2.755a.383.383 0 0 0-.473-.17l-1.917.797a5.597 5.597 0 0 0-1.3-.786l-.286-2.106a.405.405 0 0 0-.386-.33h-3.084a.404.404 0 0 0-.386.342l-.286 2.105a5.855 5.855 0 0 0-1.3.786l-1.917-.797a.383.383 0 0 0-.473.17l-1.542 2.756c-.1.17-.056.387.088.512l1.63 1.321c-.032.25-.055.511-.055.774 0 .262.023.523.055.786l-1.63 1.32a.41.41 0 0 0-.088.512l1.542 2.755c.098.17.297.24.473.17l1.917-.796c.397.318.826.58 1.3.786l.286 2.106c.034.181.198.33.386.33h3.084a.404.404 0 0 0 .386-.343l.286-2.106a5.85 5.85 0 0 0 1.3-.784l1.917.797c.175.068.375 0 .473-.17l1.542-2.757a.41.41 0 0 0-.088-.512l-1.63-1.32z"/>
        </g>
    </g>
</svg>
