<svg xmlns="http://www.w3.org/2000/svg" width="40" height="33" viewBox="0 0 40 33">
    <g fill="none" fill-rule="evenodd">
        <path fill="#FFF" fill-rule="nonzero" d="M36 2.55a4 4 0 0 1 4 4v4.8h-.002l-.003-.15c-.1-2.418-1.855-4.35-3.995-4.35H16.403c-1.127 0-2.126-.804-2.507-2.009l-.07-.797a.99.99 0 0 0-.031-.165 4.827 4.827 0 0 0-.616-1.33L36 2.55z"/>
        <path fill="#9D65A4" d="M16.403 6.734c-1.127 0-2.126-.787-2.507-1.97l-.07-.782a.955.955 0 0 0-.031-.161C13.249 1.986 11.725.754 10 .754H4c-2.205 0-4 2.012-4 4.485v22.427c0 2.472 1.795 4.485 4 4.485h32c2.205 0 4-2.013 4-4.485V11.22c0-2.473-1.795-4.486-4-4.486H16.403z"/>
    </g>
</svg>
