<svg xmlns="http://www.w3.org/2000/svg" width="48" height="48" viewBox="0 0 48 48">
    <defs>
        <circle id="a" cx="24" cy="24" r="24"/>
    </defs>
    <g fill="none" fill-rule="evenodd">
        <circle cx="24" cy="24" r="23.5" stroke="#FFF"/>
        <path stroke="#FFF" stroke-linecap="round" stroke-linejoin="round" d="M12.151 31.059h-1.26c-.696 0-1.26-.633-1.26-1.412V18.353c0-.78.564-1.412 1.26-1.412h1.26c.696 0 1.26.633 1.26 1.412v11.294c0 .78-.564 1.412-1.26 1.412zM15.933 35.294h-1.26c-.697 0-1.261-.632-1.261-1.412V14.118c0-.78.564-1.412 1.26-1.412h1.26c.697 0 1.261.632 1.261 1.412v19.764c0 .78-.564 1.412-1.26 1.412zM36.1 31.059h1.261c.696 0 1.26-.633 1.26-1.412V18.353c0-.78-.564-1.412-1.26-1.412h-1.26c-.696 0-1.26.633-1.26 1.412v11.294c0 .78.564 1.412 1.26 1.412zM32.32 35.294h1.26c.696 0 1.26-.632 1.26-1.412V14.118c0-.78-.564-1.412-1.26-1.412h-1.26c-.696 0-1.261.632-1.261 1.412v19.764c0 .78.565 1.412 1.26 1.412z"/>
        <path stroke="#FFF" stroke-linecap="round" stroke-linejoin="round" d="M17.193 25.412H31.06v-2.824H17.193z"/>
    </g>
</svg>
