<svg xmlns="http://www.w3.org/2000/svg" width="40" height="34" viewBox="0 0 40 34">
    <g fill="none" fill-rule="evenodd">
        <path fill="#9D65A4" fill-rule="nonzero" d="M36 2a4 4 0 0 1 4 4v6h-1v-.333c0-2.757-1.817-5-4.05-5H15.108c-1.141 0-2.152-.879-2.538-2.197l-.072-.872a1.16 1.16 0 0 0-.03-.18A5.58 5.58 0 0 0 12 2.234V2h24z"/>
        <path fill="#4E1755" stroke="#9D65A4" stroke-width="2" d="M16.403 7.095c-1.127 0-2.126-.803-2.507-2.008l-.07-.797a.99.99 0 0 0-.031-.165C13.249 2.255 11.725 1 10 1H4C1.795 1 0 3.051 0 5.571V28.43C0 30.949 1.795 33 4 33h32c2.205 0 4-2.051 4-4.571V11.667c0-2.52-1.795-4.572-4-4.572H16.403z"/>
    </g>
</svg>
