<svg width="48" height="48" viewBox="0 0 48 48" fill="none" xmlns="http://www.w3.org/2000/svg">
<path d="M24 48C37.2548 48 48 37.2548 48 24C48 10.7452 37.2548 0 24 0C10.7452 0 0 10.7452 0 24C0 37.2548 10.7452 48 24 48Z" fill="#ED714A"/>
<path d="M25.5319 12.2554H22.4681C21.904 12.2554 21.4468 12.7126 21.4468 13.2766V34.7235C21.4468 35.2875 21.904 35.7447 22.4681 35.7447H25.5319C26.096 35.7447 26.5532 35.2875 26.5532 34.7235V13.2766C26.5532 12.7126 26.096 12.2554 25.5319 12.2554Z" fill="white"/>
<path d="M16.3404 11.7446H13.2766C12.4305 11.7446 11.7447 12.4305 11.7447 13.2765V34.7234C11.7447 35.5694 12.4305 36.2553 13.2766 36.2553H16.3404C17.1865 36.2553 17.8723 35.5694 17.8723 34.7234V13.2765C17.8723 12.4305 17.1865 11.7446 16.3404 11.7446ZM13.2766 12.7659H16.3404C16.6224 12.7659 16.8511 12.9945 16.8511 13.2765V34.7234C16.8511 35.0054 16.6224 35.234 16.3404 35.234H13.2766C12.9946 35.234 12.766 35.0054 12.766 34.7234V13.2765C12.766 12.9945 12.9946 12.7659 13.2766 12.7659Z" fill="white"/>
<path d="M34.7234 11.7446H31.6596C30.8135 11.7446 30.1277 12.4305 30.1277 13.2765V34.7234C30.1277 35.5694 30.8135 36.2553 31.6596 36.2553H34.7234C35.5695 36.2553 36.2553 35.5694 36.2553 34.7234V13.2765C36.2553 12.4305 35.5695 11.7446 34.7234 11.7446ZM31.6596 12.7659H34.7234C35.0054 12.7659 35.234 12.9945 35.234 13.2765V34.7234C35.234 35.0054 35.0054 35.234 34.7234 35.234H31.6596C31.3776 35.234 31.1489 35.0054 31.1489 34.7234V13.2765C31.1489 12.9945 31.3776 12.7659 31.6596 12.7659Z" fill="white"/>
</svg>
