<svg xmlns="http://www.w3.org/2000/svg" width="32" height="32" viewBox="0 0 32 32">
    <g fill="none" fill-rule="evenodd">
        <path stroke="#FFF" stroke-width="1.5" d="M27.25 16c0-6.213-5.037-11.25-11.25-11.25S4.75 9.787 4.75 16 9.787 27.25 16 27.25 27.25 22.213 27.25 16z"/>
        <path stroke="#FFF" stroke-linecap="round" stroke-linejoin="round" stroke-width="1.667" d="M12 13v-1c0-1.657 1.79-3 4-3s4 1.343 4 3v.757c0 .796-.421 1.559-1.172 2.122l-1.656 1.242c-.75.563-1.172 1.326-1.172 2.122V19"/>
        <path fill="#FFF" d="M17 23a1 1 0 1 1-2 0 1 1 0 0 1 2 0z"/>
    </g>
</svg>
