<svg xmlns="http://www.w3.org/2000/svg" width="7" height="902" viewBox="0 0 7 902">
    <g fill="#C5A7C9" fill-rule="evenodd" opacity=".1">
        <path d="M524.032 3.651c0-1.763 1.554-3.192 3.47-3.192 1.918 0 3.471 1.43 3.471 3.192 0 1.763-1.553 3.192-3.47 3.192-1.917 0-3.47-1.43-3.47-3.192zm0 70.222c0-1.763 1.554-3.192 3.47-3.192 1.918 0 3.471 1.43 3.471 3.192 0 1.763-1.553 3.192-3.47 3.192-1.917 0-3.47-1.43-3.47-3.192zm0 68.094c0-1.763 1.554-3.192 3.47-3.192 1.918 0 3.471 1.429 3.471 3.192 0 1.763-1.553 3.192-3.47 3.192-1.917 0-3.47-1.43-3.47-3.192zm0 68.094c0-1.763 1.554-3.192 3.47-3.192 1.918 0 3.471 1.429 3.471 3.192 0 1.763-1.553 3.192-3.47 3.192-1.917 0-3.47-1.43-3.47-3.192zm0 69.158c0-1.763 1.554-3.192 3.47-3.192 1.918 0 3.471 1.429 3.471 3.192 0 1.763-1.553 3.192-3.47 3.192-1.917 0-3.47-1.43-3.47-3.192zM448.836 3.65c0-1.763 1.554-3.192 3.47-3.192 1.918 0 3.471 1.43 3.471 3.192 0 1.763-1.553 3.192-3.47 3.192-1.917 0-3.47-1.43-3.47-3.192zm0 70.222c0-1.763 1.554-3.192 3.47-3.192 1.918 0 3.471 1.43 3.471 3.192 0 1.763-1.553 3.192-3.47 3.192-1.917 0-3.47-1.43-3.47-3.192zm0 68.094c0-1.763 1.554-3.192 3.47-3.192 1.918 0 3.471 1.429 3.471 3.192 0 1.763-1.553 3.192-3.47 3.192-1.917 0-3.47-1.43-3.47-3.192zm0 68.094c0-1.763 1.554-3.192 3.47-3.192 1.918 0 3.471 1.429 3.471 3.192 0 1.763-1.553 3.192-3.47 3.192-1.917 0-3.47-1.43-3.47-3.192zm0 69.158c0-1.763 1.554-3.192 3.47-3.192 1.918 0 3.471 1.429 3.471 3.192 0 1.763-1.553 3.192-3.47 3.192-1.917 0-3.47-1.43-3.47-3.192zM374.797 3.65c0-1.763 1.554-3.192 3.47-3.192 1.917 0 3.471 1.43 3.471 3.192 0 1.763-1.554 3.192-3.47 3.192-1.917 0-3.471-1.43-3.471-3.192zm0 70.222c0-1.763 1.554-3.192 3.47-3.192 1.917 0 3.471 1.43 3.471 3.192 0 1.763-1.554 3.192-3.47 3.192-1.917 0-3.471-1.43-3.471-3.192zm0 68.094c0-1.763 1.554-3.192 3.47-3.192 1.917 0 3.471 1.429 3.471 3.192 0 1.763-1.554 3.192-3.47 3.192-1.917 0-3.471-1.43-3.471-3.192zm0 68.094c0-1.763 1.554-3.192 3.47-3.192 1.917 0 3.471 1.429 3.471 3.192 0 1.763-1.554 3.192-3.47 3.192-1.917 0-3.471-1.43-3.471-3.192zm0 69.158c0-1.763 1.554-3.192 3.47-3.192 1.917 0 3.471 1.429 3.471 3.192 0 1.763-1.554 3.192-3.47 3.192-1.917 0-3.471-1.43-3.471-3.192zM299.601 3.65c0-1.763 1.554-3.192 3.47-3.192 1.917 0 3.471 1.43 3.471 3.192 0 1.763-1.554 3.192-3.47 3.192-1.917 0-3.471-1.43-3.471-3.192zm0 70.222c0-1.763 1.554-3.192 3.47-3.192 1.917 0 3.471 1.43 3.471 3.192 0 1.763-1.554 3.192-3.47 3.192-1.917 0-3.471-1.43-3.471-3.192zm0 68.094c0-1.763 1.554-3.192 3.47-3.192 1.917 0 3.471 1.429 3.471 3.192 0 1.763-1.554 3.192-3.47 3.192-1.917 0-3.471-1.43-3.471-3.192zm0 68.094c0-1.763 1.554-3.192 3.47-3.192 1.917 0 3.471 1.429 3.471 3.192 0 1.763-1.554 3.192-3.47 3.192-1.917 0-3.471-1.43-3.471-3.192zm0 69.158c0-1.763 1.554-3.192 3.47-3.192 1.917 0 3.471 1.429 3.471 3.192 0 1.763-1.554 3.192-3.47 3.192-1.917 0-3.471-1.43-3.471-3.192zm224.431 69.158c0-1.763 1.554-3.192 3.47-3.192 1.918 0 3.471 1.429 3.471 3.192 0 1.762-1.553 3.191-3.47 3.191-1.917 0-3.47-1.429-3.47-3.191zm0 69.157c0-1.762 1.554-3.191 3.47-3.191 1.918 0 3.471 1.429 3.471 3.191 0 1.763-1.553 3.192-3.47 3.192-1.917 0-3.47-1.429-3.47-3.192zm0 68.094c0-1.762 1.554-3.192 3.47-3.192 1.918 0 3.471 1.43 3.471 3.192 0 1.763-1.553 3.192-3.47 3.192-1.917 0-3.47-1.429-3.47-3.192zm0 68.094c0-1.763 1.554-3.192 3.47-3.192 1.918 0 3.471 1.43 3.471 3.192 0 1.763-1.553 3.192-3.47 3.192-1.917 0-3.47-1.429-3.47-3.192zm0 70.222c0-1.763 1.554-3.192 3.47-3.192 1.918 0 3.471 1.43 3.471 3.192 0 1.763-1.553 3.192-3.47 3.192-1.917 0-3.47-1.429-3.47-3.192zm-75.196-275.567c0-1.763 1.554-3.192 3.47-3.192 1.918 0 3.471 1.429 3.471 3.192 0 1.762-1.553 3.191-3.47 3.191-1.917 0-3.47-1.429-3.47-3.191zm0 69.157c0-1.762 1.554-3.191 3.47-3.191 1.918 0 3.471 1.429 3.471 3.191 0 1.763-1.553 3.192-3.47 3.192-1.917 0-3.47-1.429-3.47-3.192zm0 68.094c0-1.762 1.554-3.192 3.47-3.192 1.918 0 3.471 1.43 3.471 3.192 0 1.763-1.553 3.192-3.47 3.192-1.917 0-3.47-1.429-3.47-3.192zm0 68.094c0-1.763 1.554-3.192 3.47-3.192 1.918 0 3.471 1.43 3.471 3.192 0 1.763-1.553 3.192-3.47 3.192-1.917 0-3.47-1.429-3.47-3.192zm0 70.222c0-1.763 1.554-3.192 3.47-3.192 1.918 0 3.471 1.43 3.471 3.192 0 1.763-1.553 3.192-3.47 3.192-1.917 0-3.47-1.429-3.47-3.192zm-74.039-275.567c0-1.763 1.554-3.192 3.47-3.192 1.917 0 3.471 1.429 3.471 3.192 0 1.762-1.554 3.191-3.47 3.191-1.917 0-3.471-1.429-3.471-3.191zm0 69.157c0-1.762 1.554-3.191 3.47-3.191 1.917 0 3.471 1.429 3.471 3.191 0 1.763-1.554 3.192-3.47 3.192-1.917 0-3.471-1.429-3.471-3.192zm0 68.094c0-1.762 1.554-3.192 3.47-3.192 1.917 0 3.471 1.43 3.471 3.192 0 1.763-1.554 3.192-3.47 3.192-1.917 0-3.471-1.429-3.471-3.192zm0 68.094c0-1.763 1.554-3.192 3.47-3.192 1.917 0 3.471 1.43 3.471 3.192 0 1.763-1.554 3.192-3.47 3.192-1.917 0-3.471-1.429-3.471-3.192zm0 70.222c0-1.763 1.554-3.192 3.47-3.192 1.917 0 3.471 1.43 3.471 3.192 0 1.763-1.554 3.192-3.47 3.192-1.917 0-3.471-1.429-3.471-3.192zm-75.196-275.567c0-1.763 1.554-3.192 3.47-3.192 1.917 0 3.471 1.429 3.471 3.192 0 1.762-1.554 3.191-3.47 3.191-1.917 0-3.471-1.429-3.471-3.191zm0 69.157c0-1.762 1.554-3.191 3.47-3.191 1.917 0 3.471 1.429 3.471 3.191 0 1.763-1.554 3.192-3.47 3.192-1.917 0-3.471-1.429-3.471-3.192zm0 68.094c0-1.762 1.554-3.192 3.47-3.192 1.917 0 3.471 1.43 3.471 3.192 0 1.763-1.554 3.192-3.47 3.192-1.917 0-3.471-1.429-3.471-3.192zm0 68.094c0-1.763 1.554-3.192 3.47-3.192 1.917 0 3.471 1.43 3.471 3.192 0 1.763-1.554 3.192-3.47 3.192-1.917 0-3.471-1.429-3.471-3.192zm0 70.222c0-1.763 1.554-3.192 3.47-3.192 1.917 0 3.471 1.43 3.471 3.192 0 1.763-1.554 3.192-3.47 3.192-1.917 0-3.471-1.429-3.471-3.192zM224.405 3.651c0-1.763 1.554-3.192 3.47-3.192 1.917 0 3.471 1.43 3.471 3.192 0 1.763-1.554 3.192-3.47 3.192-1.917 0-3.471-1.43-3.471-3.192zm0 70.222c0-1.763 1.554-3.192 3.47-3.192 1.917 0 3.471 1.43 3.471 3.192 0 1.763-1.554 3.192-3.47 3.192-1.917 0-3.471-1.43-3.471-3.192zm0 68.094c0-1.763 1.554-3.192 3.47-3.192 1.917 0 3.471 1.429 3.471 3.192 0 1.763-1.554 3.192-3.47 3.192-1.917 0-3.471-1.43-3.471-3.192zm0 68.094c0-1.763 1.554-3.192 3.47-3.192 1.917 0 3.471 1.429 3.471 3.192 0 1.763-1.554 3.192-3.47 3.192-1.917 0-3.471-1.43-3.471-3.192zm0 69.158c0-1.763 1.554-3.192 3.47-3.192 1.917 0 3.471 1.429 3.471 3.192 0 1.763-1.554 3.192-3.47 3.192-1.917 0-3.471-1.43-3.471-3.192zM149.209 3.65c0-1.763 1.554-3.192 3.47-3.192 1.917 0 3.47 1.43 3.47 3.192 0 1.763-1.553 3.192-3.47 3.192-1.916 0-3.47-1.43-3.47-3.192zm0 70.222c0-1.763 1.554-3.192 3.47-3.192 1.917 0 3.47 1.43 3.47 3.192 0 1.763-1.553 3.192-3.47 3.192-1.916 0-3.47-1.43-3.47-3.192zm0 68.094c0-1.763 1.554-3.192 3.47-3.192 1.917 0 3.47 1.429 3.47 3.192 0 1.763-1.553 3.192-3.47 3.192-1.916 0-3.47-1.43-3.47-3.192zm0 68.094c0-1.763 1.554-3.192 3.47-3.192 1.917 0 3.47 1.429 3.47 3.192 0 1.763-1.553 3.192-3.47 3.192-1.916 0-3.47-1.43-3.47-3.192zm0 69.158c0-1.763 1.554-3.192 3.47-3.192 1.917 0 3.47 1.429 3.47 3.192 0 1.763-1.553 3.192-3.47 3.192-1.916 0-3.47-1.43-3.47-3.192zM75.169 3.65C75.17 1.888 76.724.46 78.64.46s3.47 1.43 3.47 3.192c0 1.763-1.553 3.192-3.47 3.192-1.917 0-3.47-1.43-3.47-3.192zm0 70.222c0-1.763 1.554-3.192 3.471-3.192s3.47 1.43 3.47 3.192c0 1.763-1.553 3.192-3.47 3.192-1.917 0-3.47-1.43-3.47-3.192zm0 68.094c0-1.763 1.554-3.192 3.471-3.192s3.47 1.429 3.47 3.192c0 1.763-1.553 3.192-3.47 3.192-1.917 0-3.47-1.43-3.47-3.192zm0 68.094c0-1.763 1.554-3.192 3.471-3.192s3.47 1.429 3.47 3.192c0 1.763-1.553 3.192-3.47 3.192-1.917 0-3.47-1.43-3.47-3.192zm0 69.158c0-1.763 1.554-3.192 3.471-3.192s3.47 1.429 3.47 3.192c0 1.763-1.553 3.192-3.47 3.192-1.917 0-3.47-1.43-3.47-3.192zM-.026 3.65C-.027 1.888 1.527.46 3.444.46s3.47 1.43 3.47 3.192c0 1.763-1.553 3.192-3.47 3.192-1.917 0-3.47-1.43-3.47-3.192zm0 70.222c0-1.763 1.554-3.192 3.471-3.192s3.47 1.43 3.47 3.192c0 1.763-1.553 3.192-3.47 3.192-1.917 0-3.47-1.43-3.47-3.192zm0 68.094c0-1.763 1.554-3.192 3.471-3.192s3.47 1.429 3.47 3.192c0 1.763-1.553 3.192-3.47 3.192-1.917 0-3.47-1.43-3.47-3.192zm0 68.094c0-1.763 1.554-3.192 3.471-3.192s3.47 1.429 3.47 3.192c0 1.763-1.553 3.192-3.47 3.192-1.917 0-3.47-1.43-3.47-3.192zm0 69.158c0-1.763 1.554-3.192 3.471-3.192s3.47 1.429 3.47 3.192c0 1.763-1.553 3.192-3.47 3.192-1.917 0-3.47-1.43-3.47-3.192zm224.432 69.158c0-1.763 1.554-3.192 3.47-3.192 1.917 0 3.471 1.429 3.471 3.192 0 1.762-1.554 3.191-3.47 3.191-1.917 0-3.471-1.429-3.471-3.191zm0 69.157c0-1.762 1.554-3.191 3.47-3.191 1.917 0 3.471 1.429 3.471 3.191 0 1.763-1.554 3.192-3.47 3.192-1.917 0-3.471-1.429-3.471-3.192zm0 68.094c0-1.762 1.554-3.192 3.47-3.192 1.917 0 3.471 1.43 3.471 3.192 0 1.763-1.554 3.192-3.47 3.192-1.917 0-3.471-1.429-3.471-3.192zm0 68.094c0-1.763 1.554-3.192 3.47-3.192 1.917 0 3.471 1.43 3.471 3.192 0 1.763-1.554 3.192-3.47 3.192-1.917 0-3.471-1.429-3.471-3.192zm0 70.222c0-1.763 1.554-3.192 3.47-3.192 1.917 0 3.471 1.43 3.471 3.192 0 1.763-1.554 3.192-3.47 3.192-1.917 0-3.471-1.429-3.471-3.192zm-75.196-275.567c0-1.763 1.554-3.192 3.47-3.192 1.917 0 3.47 1.429 3.47 3.192 0 1.762-1.553 3.191-3.47 3.191-1.916 0-3.47-1.429-3.47-3.191zm0 69.157c0-1.762 1.554-3.191 3.47-3.191 1.917 0 3.47 1.429 3.47 3.191 0 1.763-1.553 3.192-3.47 3.192-1.916 0-3.47-1.429-3.47-3.192zm0 68.094c0-1.762 1.554-3.192 3.47-3.192 1.917 0 3.47 1.43 3.47 3.192 0 1.763-1.553 3.192-3.47 3.192-1.916 0-3.47-1.429-3.47-3.192zm0 68.094c0-1.763 1.554-3.192 3.47-3.192 1.917 0 3.47 1.43 3.47 3.192 0 1.763-1.553 3.192-3.47 3.192-1.916 0-3.47-1.429-3.47-3.192zm0 70.222c0-1.763 1.554-3.192 3.47-3.192 1.917 0 3.47 1.43 3.47 3.192 0 1.763-1.553 3.192-3.47 3.192-1.916 0-3.47-1.429-3.47-3.192zm-74.04-275.567c0-1.763 1.554-3.192 3.471-3.192s3.47 1.429 3.47 3.192c0 1.762-1.553 3.191-3.47 3.191-1.917 0-3.47-1.429-3.47-3.191zm0 69.157c0-1.762 1.554-3.191 3.471-3.191s3.47 1.429 3.47 3.191c0 1.763-1.553 3.192-3.47 3.192-1.917 0-3.47-1.429-3.47-3.192zm0 68.094c0-1.762 1.554-3.192 3.471-3.192s3.47 1.43 3.47 3.192c0 1.763-1.553 3.192-3.47 3.192-1.917 0-3.47-1.429-3.47-3.192zm0 68.094c0-1.763 1.554-3.192 3.471-3.192s3.47 1.43 3.47 3.192c0 1.763-1.553 3.192-3.47 3.192-1.917 0-3.47-1.429-3.47-3.192zm0 70.222c0-1.763 1.554-3.192 3.471-3.192s3.47 1.43 3.47 3.192c0 1.763-1.553 3.192-3.47 3.192-1.917 0-3.47-1.429-3.47-3.192zM-.026 348.377c0-1.763 1.554-3.192 3.471-3.192s3.47 1.429 3.47 3.192c0 1.762-1.553 3.191-3.47 3.191-1.917 0-3.47-1.429-3.47-3.191zm0 69.157c0-1.762 1.554-3.191 3.471-3.191s3.47 1.429 3.47 3.191c0 1.763-1.553 3.192-3.47 3.192-1.917 0-3.47-1.429-3.47-3.192zm0 68.094c0-1.762 1.554-3.192 3.471-3.192s3.47 1.43 3.47 3.192c0 1.763-1.553 3.192-3.47 3.192-1.917 0-3.47-1.429-3.47-3.192zm0 68.094c0-1.763 1.554-3.192 3.471-3.192s3.47 1.43 3.47 3.192c0 1.763-1.553 3.192-3.47 3.192-1.917 0-3.47-1.429-3.47-3.192zm0 70.222c0-1.763 1.554-3.192 3.471-3.192s3.47 1.43 3.47 3.192c0 1.763-1.553 3.192-3.47 3.192-1.917 0-3.47-1.429-3.47-3.192zM524.032 692.038c0-1.763 1.554-3.192 3.47-3.192 1.918 0 3.471 1.43 3.471 3.192 0 1.763-1.553 3.192-3.47 3.192-1.917 0-3.47-1.43-3.47-3.192zm0 70.222c0-1.763 1.554-3.192 3.47-3.192 1.918 0 3.471 1.43 3.471 3.192 0 1.763-1.553 3.192-3.47 3.192-1.917 0-3.47-1.43-3.47-3.192zm0 67.03c0-1.763 1.554-3.192 3.47-3.192 1.918 0 3.471 1.43 3.471 3.192 0 1.763-1.553 3.192-3.47 3.192-1.917 0-3.47-1.43-3.47-3.192zm0 69.158c0-1.763 1.554-3.192 3.47-3.192 1.918 0 3.471 1.429 3.471 3.192 0 1.763-1.553 3.192-3.47 3.192-1.917 0-3.47-1.43-3.47-3.192zm0 69.158c0-1.763 1.554-3.192 3.47-3.192 1.918 0 3.471 1.429 3.471 3.192 0 1.763-1.553 3.192-3.47 3.192-1.917 0-3.47-1.43-3.47-3.192zm-75.196-275.568c0-1.763 1.554-3.192 3.47-3.192 1.918 0 3.471 1.43 3.471 3.192 0 1.763-1.553 3.192-3.47 3.192-1.917 0-3.47-1.43-3.47-3.192zm0 70.222c0-1.763 1.554-3.192 3.47-3.192 1.918 0 3.471 1.43 3.471 3.192 0 1.763-1.553 3.192-3.47 3.192-1.917 0-3.47-1.43-3.47-3.192zm0 67.03c0-1.763 1.554-3.192 3.47-3.192 1.918 0 3.471 1.43 3.471 3.192 0 1.763-1.553 3.192-3.47 3.192-1.917 0-3.47-1.43-3.47-3.192zm0 69.158c0-1.763 1.554-3.192 3.47-3.192 1.918 0 3.471 1.429 3.471 3.192 0 1.763-1.553 3.192-3.47 3.192-1.917 0-3.47-1.43-3.47-3.192zm0 69.158c0-1.763 1.554-3.192 3.47-3.192 1.918 0 3.471 1.429 3.471 3.192 0 1.763-1.553 3.192-3.47 3.192-1.917 0-3.47-1.43-3.47-3.192zm-74.039-275.568c0-1.763 1.554-3.192 3.47-3.192 1.917 0 3.471 1.43 3.471 3.192 0 1.763-1.554 3.192-3.47 3.192-1.917 0-3.471-1.43-3.471-3.192zm0 70.222c0-1.763 1.554-3.192 3.47-3.192 1.917 0 3.471 1.43 3.471 3.192 0 1.763-1.554 3.192-3.47 3.192-1.917 0-3.471-1.43-3.471-3.192zm0 67.03c0-1.763 1.554-3.192 3.47-3.192 1.917 0 3.471 1.43 3.471 3.192 0 1.763-1.554 3.192-3.47 3.192-1.917 0-3.471-1.43-3.471-3.192zm0 69.158c0-1.763 1.554-3.192 3.47-3.192 1.917 0 3.471 1.429 3.471 3.192 0 1.763-1.554 3.192-3.47 3.192-1.917 0-3.471-1.43-3.471-3.192zm0 69.158c0-1.763 1.554-3.192 3.47-3.192 1.917 0 3.471 1.429 3.471 3.192 0 1.763-1.554 3.192-3.47 3.192-1.917 0-3.471-1.43-3.471-3.192zm-75.196-275.568c0-1.763 1.554-3.192 3.47-3.192 1.917 0 3.471 1.43 3.471 3.192 0 1.763-1.554 3.192-3.47 3.192-1.917 0-3.471-1.43-3.471-3.192zm0 70.222c0-1.763 1.554-3.192 3.47-3.192 1.917 0 3.471 1.43 3.471 3.192 0 1.763-1.554 3.192-3.47 3.192-1.917 0-3.471-1.43-3.471-3.192zm0 67.03c0-1.763 1.554-3.192 3.47-3.192 1.917 0 3.471 1.43 3.471 3.192 0 1.763-1.554 3.192-3.47 3.192-1.917 0-3.471-1.43-3.471-3.192zm0 69.158c0-1.763 1.554-3.192 3.47-3.192 1.917 0 3.471 1.429 3.471 3.192 0 1.763-1.554 3.192-3.47 3.192-1.917 0-3.471-1.43-3.471-3.192zm0 69.158c0-1.763 1.554-3.192 3.47-3.192 1.917 0 3.471 1.429 3.471 3.192 0 1.763-1.554 3.192-3.47 3.192-1.917 0-3.471-1.43-3.471-3.192zm224.431 68.094c0-1.763 1.554-3.192 3.47-3.192 1.918 0 3.471 1.429 3.471 3.192 0 1.762-1.553 3.192-3.47 3.192-1.917 0-3.47-1.43-3.47-3.192zm0 69.158c0-1.763 1.554-3.192 3.47-3.192 1.918 0 3.471 1.429 3.471 3.192 0 1.762-1.553 3.191-3.47 3.191-1.917 0-3.47-1.429-3.47-3.191zm0 69.157c0-1.762 1.554-3.191 3.47-3.191 1.918 0 3.471 1.429 3.471 3.191 0 1.763-1.553 3.192-3.47 3.192-1.917 0-3.47-1.429-3.47-3.192zm0 67.03c0-1.762 1.554-3.192 3.47-3.192 1.918 0 3.471 1.43 3.471 3.192 0 1.763-1.553 3.192-3.47 3.192-1.917 0-3.47-1.429-3.47-3.192zm0 70.222c0-1.763 1.554-3.192 3.47-3.192 1.918 0 3.471 1.43 3.471 3.192 0 1.763-1.553 3.192-3.47 3.192-1.917 0-3.47-1.429-3.47-3.192zM448.836 1035.7c0-1.763 1.554-3.192 3.47-3.192 1.918 0 3.471 1.429 3.471 3.192 0 1.762-1.553 3.192-3.47 3.192-1.917 0-3.47-1.43-3.47-3.192zm0 69.158c0-1.763 1.554-3.192 3.47-3.192 1.918 0 3.471 1.429 3.471 3.192 0 1.762-1.553 3.191-3.47 3.191-1.917 0-3.47-1.429-3.47-3.191zm0 69.157c0-1.762 1.554-3.191 3.47-3.191 1.918 0 3.471 1.429 3.471 3.191 0 1.763-1.553 3.192-3.47 3.192-1.917 0-3.47-1.429-3.47-3.192zm0 67.03c0-1.762 1.554-3.192 3.47-3.192 1.918 0 3.471 1.43 3.471 3.192 0 1.763-1.553 3.192-3.47 3.192-1.917 0-3.47-1.429-3.47-3.192zm0 70.222c0-1.763 1.554-3.192 3.47-3.192 1.918 0 3.471 1.43 3.471 3.192 0 1.763-1.553 3.192-3.47 3.192-1.917 0-3.47-1.429-3.47-3.192zM374.797 1035.7c0-1.763 1.554-3.192 3.47-3.192 1.917 0 3.471 1.429 3.471 3.192 0 1.762-1.554 3.192-3.47 3.192-1.917 0-3.471-1.43-3.471-3.192zm0 69.158c0-1.763 1.554-3.192 3.47-3.192 1.917 0 3.471 1.429 3.471 3.192 0 1.762-1.554 3.191-3.47 3.191-1.917 0-3.471-1.429-3.471-3.191zm0 69.157c0-1.762 1.554-3.191 3.47-3.191 1.917 0 3.471 1.429 3.471 3.191 0 1.763-1.554 3.192-3.47 3.192-1.917 0-3.471-1.429-3.471-3.192zm0 67.03c0-1.762 1.554-3.192 3.47-3.192 1.917 0 3.471 1.43 3.471 3.192 0 1.763-1.554 3.192-3.47 3.192-1.917 0-3.471-1.429-3.471-3.192zm0 70.222c0-1.763 1.554-3.192 3.47-3.192 1.917 0 3.471 1.43 3.471 3.192 0 1.763-1.554 3.192-3.47 3.192-1.917 0-3.471-1.429-3.471-3.192zM299.601 1035.7c0-1.763 1.554-3.192 3.47-3.192 1.917 0 3.471 1.429 3.471 3.192 0 1.762-1.554 3.192-3.47 3.192-1.917 0-3.471-1.43-3.471-3.192zm0 69.158c0-1.763 1.554-3.192 3.47-3.192 1.917 0 3.471 1.429 3.471 3.192 0 1.762-1.554 3.191-3.47 3.191-1.917 0-3.471-1.429-3.471-3.191zm0 69.157c0-1.762 1.554-3.191 3.47-3.191 1.917 0 3.471 1.429 3.471 3.191 0 1.763-1.554 3.192-3.47 3.192-1.917 0-3.471-1.429-3.471-3.192zm0 67.03c0-1.762 1.554-3.192 3.47-3.192 1.917 0 3.471 1.43 3.471 3.192 0 1.763-1.554 3.192-3.47 3.192-1.917 0-3.471-1.429-3.471-3.192zm0 70.222c0-1.763 1.554-3.192 3.47-3.192 1.917 0 3.471 1.43 3.471 3.192 0 1.763-1.554 3.192-3.47 3.192-1.917 0-3.471-1.429-3.471-3.192zM224.405 692.038c0-1.763 1.554-3.192 3.47-3.192 1.917 0 3.471 1.43 3.471 3.192 0 1.763-1.554 3.192-3.47 3.192-1.917 0-3.471-1.43-3.471-3.192zm0 70.222c0-1.763 1.554-3.192 3.47-3.192 1.917 0 3.471 1.43 3.471 3.192 0 1.763-1.554 3.192-3.47 3.192-1.917 0-3.471-1.43-3.471-3.192zm0 67.03c0-1.763 1.554-3.192 3.47-3.192 1.917 0 3.471 1.43 3.471 3.192 0 1.763-1.554 3.192-3.47 3.192-1.917 0-3.471-1.43-3.471-3.192zm0 69.158c0-1.763 1.554-3.192 3.47-3.192 1.917 0 3.471 1.429 3.471 3.192 0 1.763-1.554 3.192-3.47 3.192-1.917 0-3.471-1.43-3.471-3.192zm0 69.158c0-1.763 1.554-3.192 3.47-3.192 1.917 0 3.471 1.429 3.471 3.192 0 1.763-1.554 3.192-3.47 3.192-1.917 0-3.471-1.43-3.471-3.192zm-75.196-275.568c0-1.763 1.554-3.192 3.47-3.192 1.917 0 3.47 1.43 3.47 3.192 0 1.763-1.553 3.192-3.47 3.192-1.916 0-3.47-1.43-3.47-3.192zm0 70.222c0-1.763 1.554-3.192 3.47-3.192 1.917 0 3.47 1.43 3.47 3.192 0 1.763-1.553 3.192-3.47 3.192-1.916 0-3.47-1.43-3.47-3.192zm0 67.03c0-1.763 1.554-3.192 3.47-3.192 1.917 0 3.47 1.43 3.47 3.192 0 1.763-1.553 3.192-3.47 3.192-1.916 0-3.47-1.43-3.47-3.192zm0 69.158c0-1.763 1.554-3.192 3.47-3.192 1.917 0 3.47 1.429 3.47 3.192 0 1.763-1.553 3.192-3.47 3.192-1.916 0-3.47-1.43-3.47-3.192zm0 69.158c0-1.763 1.554-3.192 3.47-3.192 1.917 0 3.47 1.429 3.47 3.192 0 1.763-1.553 3.192-3.47 3.192-1.916 0-3.47-1.43-3.47-3.192zm-74.04-275.568c0-1.763 1.554-3.192 3.471-3.192s3.47 1.43 3.47 3.192c0 1.763-1.553 3.192-3.47 3.192-1.917 0-3.47-1.43-3.47-3.192zm0 70.222c0-1.763 1.554-3.192 3.471-3.192s3.47 1.43 3.47 3.192c0 1.763-1.553 3.192-3.47 3.192-1.917 0-3.47-1.43-3.47-3.192zm0 67.03c0-1.763 1.554-3.192 3.471-3.192s3.47 1.43 3.47 3.192c0 1.763-1.553 3.192-3.47 3.192-1.917 0-3.47-1.43-3.47-3.192zm0 69.158c0-1.763 1.554-3.192 3.471-3.192s3.47 1.429 3.47 3.192c0 1.763-1.553 3.192-3.47 3.192-1.917 0-3.47-1.43-3.47-3.192zm0 69.158c0-1.763 1.554-3.192 3.471-3.192s3.47 1.429 3.47 3.192c0 1.763-1.553 3.192-3.47 3.192-1.917 0-3.47-1.43-3.47-3.192zM-.026 692.038c0-1.763 1.554-3.192 3.471-3.192s3.47 1.43 3.47 3.192c0 1.763-1.553 3.192-3.47 3.192-1.917 0-3.47-1.43-3.47-3.192zm0 70.222c0-1.763 1.554-3.192 3.471-3.192s3.47 1.43 3.47 3.192c0 1.763-1.553 3.192-3.47 3.192-1.917 0-3.47-1.43-3.47-3.192zm0 67.03c0-1.763 1.554-3.192 3.471-3.192s3.47 1.43 3.47 3.192c0 1.763-1.553 3.192-3.47 3.192-1.917 0-3.47-1.43-3.47-3.192zm0 69.158c0-1.763 1.554-3.192 3.471-3.192s3.47 1.429 3.47 3.192c0 1.763-1.553 3.192-3.47 3.192-1.917 0-3.47-1.43-3.47-3.192zm0 69.158c0-1.763 1.554-3.192 3.471-3.192s3.47 1.429 3.47 3.192c0 1.763-1.553 3.192-3.47 3.192-1.917 0-3.47-1.43-3.47-3.192zm224.432 68.094c0-1.763 1.554-3.192 3.47-3.192 1.917 0 3.471 1.429 3.471 3.192 0 1.762-1.554 3.192-3.47 3.192-1.917 0-3.471-1.43-3.471-3.192zm0 69.158c0-1.763 1.554-3.192 3.47-3.192 1.917 0 3.471 1.429 3.471 3.192 0 1.762-1.554 3.191-3.47 3.191-1.917 0-3.471-1.429-3.471-3.191zm0 69.157c0-1.762 1.554-3.191 3.47-3.191 1.917 0 3.471 1.429 3.471 3.191 0 1.763-1.554 3.192-3.47 3.192-1.917 0-3.471-1.429-3.471-3.192zm0 67.03c0-1.762 1.554-3.192 3.47-3.192 1.917 0 3.471 1.43 3.471 3.192 0 1.763-1.554 3.192-3.47 3.192-1.917 0-3.471-1.429-3.471-3.192zm0 70.222c0-1.763 1.554-3.192 3.47-3.192 1.917 0 3.471 1.43 3.471 3.192 0 1.763-1.554 3.192-3.47 3.192-1.917 0-3.471-1.429-3.471-3.192zM149.209 1035.7c0-1.763 1.554-3.192 3.47-3.192 1.917 0 3.47 1.429 3.47 3.192 0 1.762-1.553 3.192-3.47 3.192-1.916 0-3.47-1.43-3.47-3.192zm0 69.158c0-1.763 1.554-3.192 3.47-3.192 1.917 0 3.47 1.429 3.47 3.192 0 1.762-1.553 3.191-3.47 3.191-1.916 0-3.47-1.429-3.47-3.191zm0 69.157c0-1.762 1.554-3.191 3.47-3.191 1.917 0 3.47 1.429 3.47 3.191 0 1.763-1.553 3.192-3.47 3.192-1.916 0-3.47-1.429-3.47-3.192zm0 67.03c0-1.762 1.554-3.192 3.47-3.192 1.917 0 3.47 1.43 3.47 3.192 0 1.763-1.553 3.192-3.47 3.192-1.916 0-3.47-1.429-3.47-3.192zm0 70.222c0-1.763 1.554-3.192 3.47-3.192 1.917 0 3.47 1.43 3.47 3.192 0 1.763-1.553 3.192-3.47 3.192-1.916 0-3.47-1.429-3.47-3.192zM75.169 1035.7c0-1.763 1.554-3.192 3.471-3.192s3.47 1.429 3.47 3.192c0 1.762-1.553 3.192-3.47 3.192-1.917 0-3.47-1.43-3.47-3.192zm0 69.158c0-1.763 1.554-3.192 3.471-3.192s3.47 1.429 3.47 3.192c0 1.762-1.553 3.191-3.47 3.191-1.917 0-3.47-1.429-3.47-3.191zm0 69.157c0-1.762 1.554-3.191 3.471-3.191s3.47 1.429 3.47 3.191c0 1.763-1.553 3.192-3.47 3.192-1.917 0-3.47-1.429-3.47-3.192zm0 67.03c0-1.762 1.554-3.192 3.471-3.192s3.47 1.43 3.47 3.192c0 1.763-1.553 3.192-3.47 3.192-1.917 0-3.47-1.429-3.47-3.192zm0 70.222c0-1.763 1.554-3.192 3.471-3.192s3.47 1.43 3.47 3.192c0 1.763-1.553 3.192-3.47 3.192-1.917 0-3.47-1.429-3.47-3.192zM-.026 1035.7c0-1.763 1.554-3.192 3.471-3.192s3.47 1.429 3.47 3.192c0 1.762-1.553 3.192-3.47 3.192-1.917 0-3.47-1.43-3.47-3.192zm0 69.158c0-1.763 1.554-3.192 3.471-3.192s3.47 1.429 3.47 3.192c0 1.762-1.553 3.191-3.47 3.191-1.917 0-3.47-1.429-3.47-3.191zm0 69.157c0-1.762 1.554-3.191 3.471-3.191s3.47 1.429 3.47 3.191c0 1.763-1.553 3.192-3.47 3.192-1.917 0-3.47-1.429-3.47-3.192zm0 67.03c0-1.762 1.554-3.192 3.471-3.192s3.47 1.43 3.47 3.192c0 1.763-1.553 3.192-3.47 3.192-1.917 0-3.47-1.429-3.47-3.192zm0 70.222c0-1.763 1.554-3.192 3.471-3.192s3.47 1.43 3.47 3.192c0 1.763-1.553 3.192-3.47 3.192-1.917 0-3.47-1.429-3.47-3.192z"/>
    </g>
</svg>
