<svg width="40" height="32" viewBox="0 0 40 32" fill="none" xmlns="http://www.w3.org/2000/svg">
<path d="M36 1.79669C38.2091 1.79669 40 3.58755 40 5.79669V10.5967L39.9978 10.5957L39.9954 10.4455C39.8941 8.02738 38.1405 6.09521 36 6.09521H16.4027C15.276 6.09521 14.2773 5.29216 13.896 4.08683L13.8253 3.28988C13.82 3.23502 13.8093 3.17864 13.7947 3.1253C13.6519 2.63589 13.4421 2.18855 13.1792 1.7948L36 1.79669Z" fill="white"/>
<path fill-rule="evenodd" clip-rule="evenodd" d="M16.4027 5.98033C15.276 5.98033 14.2773 5.19242 13.896 4.00981L13.8253 3.22788C13.82 3.17406 13.8093 3.11874 13.7947 3.06641C13.2493 1.23195 11.7253 0 10 0H4C1.79467 0 0 2.01238 0 4.48525V26.9115C0 29.3843 1.79467 31.3967 4 31.3967H36C38.2053 31.3967 40 29.3843 40 26.9115V10.4656C40 7.99271 38.2053 5.98033 36 5.98033H16.4027Z" fill="#9D65A4"/>
</svg>
